<svg width="50" height="50" viewBox="0 0 50 50" xmlns="http://www.w3.org/2000/svg"><g id="Layer_2" data-name="Layer 2">
    <style>
    #favicon {
      fill: #000000;
    }
    @media (prefers-color-scheme: dark) {
      #favicon {
        fill: #ffdf5e;
      }
    }
    </style>
    <path id="favicon" width="50" height="50" d="M13,32.36l-.23.28v3.78l1,1.38-1,1.08v9.77c.43-.39.74-.86.42-1.38.49-.37.37-.73.23-1.41h0c-.12-.17-.34-.34-.32-.5,0-.42.49,0,.61-.52.86.21.44.35.75,1.06.13.32-.15.91.56,1-.35.48-.79.44-1.07,1-.38.7-.35.91.09,1.9l1.45-.31c0,.19,0,.38,0,.55h5.14V35.22a1.6,1.6,0,0,0-.83-.38c-.11,0-.19-.25-.28-.38l0,0-.74-.07h0v0c-.29-.07-.53-.21-.4-.56a2.28,2.28,0,0,1,1-1.25l1.3.11V30.76c-.48.06-1-.27-1.5-.15.15-1,.84-1.42,1.5-2V7.14h3.71a3.73,3.73,0,0,1,2.9,1.07,5.47,5.47,0,0,1,1,3.65v5.93a5.46,5.46,0,0,1-1,3.64,3.25,3.25,0,0,1-2,1V29.5s0,.08,0,.12c3.46-.15,6.1-1.19,7.9-3.12,2-2.09,2.93-5.17,2.93-9.21V12.36q0-6.07-2.93-9.22T24.36,0H12.79V32.2Zm7.44,14.49.06.1H20.4Zm5.19-24a.45.45,0,0,1-.12.06l0-.2.13,0S25.66,22.79,25.65,22.81Zm-7-10s.08.09.08.11a1.33,1.33,0,0,1-.14.19L18.49,13ZM14.94,43.55l-.56-1C15,42.7,15,42.7,14.94,43.55Zm3.18-2.28c.06.08.15.16.16.24s-.11.14-.17.2-.14-.16-.15-.24S18.06,41.34,18.12,41.27Zm-.65-3.58s.08.06.09.1,0,.27.08.67a4.5,4.5,0,0,1-.29-.59S17.42,37.75,17.47,37.69Zm-.74-6.39c.15,0,.41.26.4.38,0,.52-.38.55-.88.39C16.32,31.66,16.28,31.27,16.73,31.3Zm-.82-1.8a1.38,1.38,0,0,1,.45,0v.25l-.9.06C15.47,29.44,15.74,29.53,15.91,29.5Zm-.89,6a.51.51,0,0,1,.56.45c0,.38-.29.68-.85.74-.08-.09-.28-.22-.32-.38A.71.71,0,0,1,15,35.53Zm-.63,5.76,0,.1-.1,0Z"/></g></svg>